<svg width="278" height="100" viewBox="0 0 278 100" fill="none" xmlns="http://www.w3.org/2000/svg">
<circle cx="56.7477" cy="56.7472" r="43.2526" fill="#8AFFEA"/>
<circle cx="43.2526" cy="43.2526" r="43.2526" fill="url(#paint0_linear_54716_26715)"/>
<circle cx="42.7331" cy="42.7336" r="33.737" stroke="white"/>
<path d="M74.7842 51.7299V33.7368L75.9087 42.7334L74.7842 51.7299Z" stroke="white"/>
<path d="M42.7334 42.7333L74.7836 32.9943V52.4724L42.7334 42.7333Z" fill="white"/>
<path d="M134.401 69.57C130.525 69.57 127.124 68.715 124.198 67.005C121.31 65.295 119.068 62.901 117.472 59.823C115.876 56.707 115.078 53.059 115.078 48.879C115.078 45.725 115.534 42.894 116.446 40.386C117.358 37.84 118.65 35.674 120.322 33.888C122.032 32.064 124.065 30.677 126.421 29.727C128.815 28.739 131.475 28.245 134.401 28.245C138.315 28.245 141.716 29.1 144.604 30.81C147.492 32.482 149.734 34.857 151.33 37.935C152.926 41.013 153.724 44.642 153.724 48.822C153.724 51.976 153.268 54.826 152.356 57.372C151.444 59.918 150.133 62.103 148.423 63.927C146.751 65.751 144.718 67.157 142.324 68.145C139.968 69.095 137.327 69.57 134.401 69.57ZM134.401 63.3C136.871 63.3 138.961 62.73 140.671 61.59C142.419 60.45 143.749 58.797 144.661 56.631C145.611 54.465 146.086 51.881 146.086 48.879C146.086 44.319 145.06 40.785 143.008 38.277C140.994 35.769 138.125 34.515 134.401 34.515C131.969 34.515 129.879 35.085 128.131 36.225C126.383 37.327 125.034 38.961 124.084 41.127C123.172 43.255 122.716 45.839 122.716 48.879C122.716 53.401 123.742 56.935 125.794 59.481C127.846 62.027 130.715 63.3 134.401 63.3ZM173.091 69.57C170.165 69.57 167.619 68.981 165.453 67.803C163.287 66.587 161.615 64.877 160.437 62.673C159.259 60.469 158.67 57.885 158.67 54.921C158.67 52.679 158.993 50.684 159.639 48.936C160.323 47.15 161.292 45.649 162.546 44.433C163.8 43.179 165.32 42.229 167.106 41.583C168.892 40.899 170.887 40.557 173.091 40.557C174.345 40.557 175.694 40.728 177.138 41.07C178.62 41.412 180.007 41.982 181.299 42.78C181.907 43.16 182.306 43.616 182.496 44.148C182.686 44.68 182.724 45.231 182.61 45.801C182.496 46.333 182.249 46.808 181.869 47.226C181.527 47.606 181.09 47.853 180.558 47.967C180.026 48.043 179.437 47.91 178.791 47.568C177.955 47.074 177.1 46.713 176.226 46.485C175.352 46.219 174.516 46.086 173.718 46.086C172.464 46.086 171.362 46.295 170.412 46.713C169.462 47.093 168.645 47.663 167.961 48.423C167.315 49.145 166.821 50.057 166.479 51.159C166.137 52.261 165.966 53.534 165.966 54.978C165.966 57.79 166.631 60.013 167.961 61.647C169.329 63.243 171.248 64.041 173.718 64.041C174.516 64.041 175.333 63.927 176.169 63.699C177.043 63.471 177.917 63.11 178.791 62.616C179.437 62.274 180.007 62.16 180.501 62.274C181.033 62.388 181.47 62.654 181.812 63.072C182.154 63.452 182.363 63.927 182.439 64.497C182.515 65.029 182.439 65.561 182.211 66.093C182.021 66.625 181.641 67.062 181.071 67.404C179.817 68.164 178.487 68.715 177.081 69.057C175.675 69.399 174.345 69.57 173.091 69.57ZM200.025 69.57C196.871 69.57 194.154 68.981 191.874 67.803C189.594 66.625 187.827 64.953 186.573 62.787C185.357 60.621 184.749 58.056 184.749 55.092C184.749 52.204 185.338 49.677 186.516 47.511C187.732 45.345 189.385 43.654 191.475 42.438C193.603 41.184 196.016 40.557 198.714 40.557C200.69 40.557 202.457 40.88 204.015 41.526C205.611 42.172 206.96 43.103 208.062 44.319C209.202 45.535 210.057 47.017 210.627 48.765C211.235 50.475 211.539 52.413 211.539 54.579C211.539 55.263 211.292 55.795 210.798 56.175C210.342 56.517 209.677 56.688 208.803 56.688H190.506V52.584H206.523L205.611 53.439C205.611 51.691 205.345 50.228 204.813 49.05C204.319 47.872 203.578 46.979 202.59 46.371C201.64 45.725 200.443 45.402 198.999 45.402C197.403 45.402 196.035 45.782 194.895 46.542C193.793 47.264 192.938 48.309 192.33 49.677C191.76 51.007 191.475 52.603 191.475 54.465V54.864C191.475 57.98 192.197 60.317 193.641 61.875C195.123 63.395 197.289 64.155 200.139 64.155C201.127 64.155 202.229 64.041 203.445 63.813C204.699 63.547 205.877 63.11 206.979 62.502C207.777 62.046 208.48 61.856 209.088 61.932C209.696 61.97 210.171 62.179 210.513 62.559C210.893 62.939 211.121 63.414 211.197 63.984C211.273 64.516 211.159 65.067 210.855 65.637C210.589 66.207 210.114 66.701 209.43 67.119C208.1 67.955 206.561 68.582 204.813 69C203.103 69.38 201.507 69.57 200.025 69.57ZM226.109 69.57C224.095 69.57 222.29 69.19 220.694 68.43C219.136 67.632 217.901 66.568 216.989 65.238C216.115 63.908 215.678 62.407 215.678 60.735C215.678 58.683 216.21 57.068 217.274 55.89C218.338 54.674 220.067 53.8 222.461 53.268C224.855 52.736 228.066 52.47 232.094 52.47H234.944V56.574H232.151C229.795 56.574 227.914 56.688 226.508 56.916C225.102 57.144 224.095 57.543 223.487 58.113C222.917 58.645 222.632 59.405 222.632 60.393C222.632 61.647 223.069 62.673 223.943 63.471C224.817 64.269 226.033 64.668 227.591 64.668C228.845 64.668 229.947 64.383 230.897 63.813C231.885 63.205 232.664 62.388 233.234 61.362C233.804 60.336 234.089 59.158 234.089 57.828V51.273C234.089 49.373 233.671 48.005 232.835 47.169C231.999 46.333 230.593 45.915 228.617 45.915C227.515 45.915 226.318 46.048 225.026 46.314C223.772 46.58 222.442 47.036 221.036 47.682C220.314 48.024 219.668 48.119 219.098 47.967C218.566 47.815 218.148 47.511 217.844 47.055C217.54 46.561 217.388 46.029 217.388 45.459C217.388 44.889 217.54 44.338 217.844 43.806C218.148 43.236 218.661 42.818 219.383 42.552C221.131 41.83 222.803 41.317 224.399 41.013C226.033 40.709 227.515 40.557 228.845 40.557C231.581 40.557 233.823 40.975 235.571 41.811C237.357 42.647 238.687 43.92 239.561 45.63C240.435 47.302 240.872 49.468 240.872 52.128V65.808C240.872 66.986 240.587 67.898 240.017 68.544C239.447 69.152 238.63 69.456 237.566 69.456C236.502 69.456 235.666 69.152 235.058 68.544C234.488 67.898 234.203 66.986 234.203 65.808V63.072H234.659C234.393 64.402 233.861 65.561 233.063 66.549C232.303 67.499 231.334 68.24 230.156 68.772C228.978 69.304 227.629 69.57 226.109 69.57ZM251.387 69.456C250.247 69.456 249.373 69.152 248.765 68.544C248.157 67.898 247.853 66.986 247.853 65.808V44.262C247.853 43.084 248.157 42.191 248.765 41.583C249.373 40.975 250.228 40.671 251.33 40.671C252.432 40.671 253.287 40.975 253.895 41.583C254.503 42.191 254.807 43.084 254.807 44.262V48.138L254.18 46.713C255.016 44.699 256.308 43.179 258.056 42.153C259.842 41.089 261.856 40.557 264.098 40.557C266.34 40.557 268.183 40.975 269.627 41.811C271.071 42.647 272.154 43.92 272.876 45.63C273.598 47.302 273.959 49.43 273.959 52.014V65.808C273.959 66.986 273.655 67.898 273.047 68.544C272.439 69.152 271.565 69.456 270.425 69.456C269.285 69.456 268.392 69.152 267.746 68.544C267.138 67.898 266.834 66.986 266.834 65.808V52.356C266.834 50.19 266.416 48.613 265.58 47.625C264.782 46.637 263.528 46.143 261.818 46.143C259.728 46.143 258.056 46.808 256.802 48.138C255.586 49.43 254.978 51.159 254.978 53.325V65.808C254.978 68.24 253.781 69.456 251.387 69.456Z" fill="#14B8A6"/>
<defs>
<linearGradient id="paint0_linear_54716_26715" x1="0" y1="43" x2="87" y2="43" gradientUnits="userSpaceOnUse">
<stop stop-color="#06B6D4"/>
<stop offset="1" stop-color="#6EE7B7"/>
</linearGradient>
</defs>
</svg>
